<mxfile host="Electron" agent="Mozilla/5.0 (Windows NT 10.0; Win64; x64) AppleWebKit/537.36 (KHTML, like Gecko) draw.io/28.1.2 Chrome/138.0.7204.243 Electron/37.4.0 Safari/537.36" version="28.1.2">
  <diagram name="Page-1" id="e56a1550-8fbb-45ad-956c-1786394a9013">
    <mxGraphModel dx="1028" dy="611" grid="1" gridSize="10" guides="1" tooltips="1" connect="1" arrows="1" fold="1" page="1" pageScale="1" pageWidth="1100" pageHeight="850" background="none" math="0" shadow="0">
      <root>
        <mxCell id="0" />
        <mxCell id="1" parent="0" />
        <mxCell id="F3DADrohIRwBs0gz51Ki-5" value="Organisatie" style="swimlane;childLayout=stackLayout;horizontal=1;startSize=50;horizontalStack=0;rounded=1;fontSize=14;fontStyle=0;strokeWidth=2;resizeParent=0;resizeLast=1;shadow=0;dashed=0;align=center;arcSize=4;whiteSpace=wrap;html=1;" parent="1" vertex="1">
          <mxGeometry x="40" y="150" width="160" height="120" as="geometry" />
        </mxCell>
        <mxCell id="F3DADrohIRwBs0gz51Ki-6" value="&lt;u&gt;afkorting&lt;/u&gt;&lt;div&gt;naam&lt;/div&gt;" style="align=left;strokeColor=none;fillColor=none;spacingLeft=4;spacingRight=4;fontSize=12;verticalAlign=top;resizable=0;rotatable=0;part=1;html=1;whiteSpace=wrap;" parent="F3DADrohIRwBs0gz51Ki-5" vertex="1">
          <mxGeometry y="50" width="160" height="70" as="geometry" />
        </mxCell>
        <mxCell id="F3DADrohIRwBs0gz51Ki-7" value="Land" style="swimlane;childLayout=stackLayout;horizontal=1;startSize=50;horizontalStack=0;rounded=1;fontSize=14;fontStyle=0;strokeWidth=2;resizeParent=0;resizeLast=1;shadow=0;dashed=0;align=center;arcSize=4;whiteSpace=wrap;html=1;" parent="1" vertex="1">
          <mxGeometry x="360" y="150" width="160" height="120" as="geometry" />
        </mxCell>
        <mxCell id="F3DADrohIRwBs0gz51Ki-8" value="&lt;u&gt;naam&lt;/u&gt;&lt;div&gt;ligging&lt;/div&gt;" style="align=left;strokeColor=none;fillColor=none;spacingLeft=4;spacingRight=4;fontSize=12;verticalAlign=top;resizable=0;rotatable=0;part=1;html=1;whiteSpace=wrap;" parent="F3DADrohIRwBs0gz51Ki-7" vertex="1">
          <mxGeometry y="50" width="160" height="70" as="geometry" />
        </mxCell>
        <mxCell id="F3DADrohIRwBs0gz51Ki-9" value="Staatshoofd" style="swimlane;childLayout=stackLayout;horizontal=1;startSize=50;horizontalStack=0;rounded=1;fontSize=14;fontStyle=0;strokeWidth=2;resizeParent=0;resizeLast=1;shadow=0;dashed=0;align=center;arcSize=4;whiteSpace=wrap;html=1;" parent="1" vertex="1">
          <mxGeometry x="640" y="150" width="160" height="120" as="geometry" />
        </mxCell>
        <mxCell id="F3DADrohIRwBs0gz51Ki-10" value="&lt;u&gt;naam&lt;/u&gt;&lt;div&gt;soort&lt;/div&gt;" style="align=left;strokeColor=none;fillColor=none;spacingLeft=4;spacingRight=4;fontSize=12;verticalAlign=top;resizable=0;rotatable=0;part=1;html=1;whiteSpace=wrap;" parent="F3DADrohIRwBs0gz51Ki-9" vertex="1">
          <mxGeometry y="50" width="160" height="70" as="geometry" />
        </mxCell>
        <mxCell id="F3DADrohIRwBs0gz51Ki-11" value="" style="endArrow=ERzeroToOne;html=1;rounded=0;exitX=1;exitY=0.25;exitDx=0;exitDy=0;entryX=0;entryY=0.25;entryDx=0;entryDy=0;startArrow=ERzeroToMany;startFill=0;endFill=0;" parent="1" source="F3DADrohIRwBs0gz51Ki-5" target="F3DADrohIRwBs0gz51Ki-7" edge="1">
          <mxGeometry relative="1" as="geometry">
            <mxPoint x="70" y="310" as="sourcePoint" />
            <mxPoint x="230" y="310" as="targetPoint" />
          </mxGeometry>
        </mxCell>
        <mxCell id="F3DADrohIRwBs0gz51Ki-14" value="voorzitter van" style="edgeLabel;html=1;align=center;verticalAlign=middle;resizable=0;points=[];" parent="F3DADrohIRwBs0gz51Ki-11" vertex="1" connectable="0">
          <mxGeometry x="-0.155" relative="1" as="geometry">
            <mxPoint x="2" y="10" as="offset" />
          </mxGeometry>
        </mxCell>
        <mxCell id="F3DADrohIRwBs0gz51Ki-12" value="" style="endArrow=ERoneToMany;html=1;rounded=0;exitX=1;exitY=0.25;exitDx=0;exitDy=0;entryX=0;entryY=0.25;entryDx=0;entryDy=0;startArrow=ERoneToMany;startFill=0;endFill=0;" parent="1" source="F3DADrohIRwBs0gz51Ki-8" target="F3DADrohIRwBs0gz51Ki-10" edge="1">
          <mxGeometry relative="1" as="geometry">
            <mxPoint x="440" y="350" as="sourcePoint" />
            <mxPoint x="600" y="350" as="targetPoint" />
          </mxGeometry>
        </mxCell>
        <mxCell id="F3DADrohIRwBs0gz51Ki-17" value="heeft gezag over" style="edgeLabel;html=1;align=center;verticalAlign=middle;resizable=0;points=[];" parent="F3DADrohIRwBs0gz51Ki-12" vertex="1" connectable="0">
          <mxGeometry x="-0.1567" y="-1" relative="1" as="geometry">
            <mxPoint x="9" y="12" as="offset" />
          </mxGeometry>
        </mxCell>
        <mxCell id="F3DADrohIRwBs0gz51Ki-13" value="" style="endArrow=ERoneToMany;html=1;rounded=0;exitX=1;exitY=0.75;exitDx=0;exitDy=0;entryX=0;entryY=0.75;entryDx=0;entryDy=0;startArrow=ERzeroToMany;startFill=0;endFill=0;" parent="1" source="F3DADrohIRwBs0gz51Ki-6" target="F3DADrohIRwBs0gz51Ki-8" edge="1">
          <mxGeometry relative="1" as="geometry">
            <mxPoint x="260" y="400" as="sourcePoint" />
            <mxPoint x="420" y="400" as="targetPoint" />
          </mxGeometry>
        </mxCell>
        <mxCell id="F3DADrohIRwBs0gz51Ki-15" value="lid van" style="edgeLabel;html=1;align=center;verticalAlign=middle;resizable=0;points=[];" parent="F3DADrohIRwBs0gz51Ki-13" vertex="1" connectable="0">
          <mxGeometry x="-0.0175" y="1" relative="1" as="geometry">
            <mxPoint x="-9" y="9" as="offset" />
          </mxGeometry>
        </mxCell>
        <mxCell id="F3DADrohIRwBs0gz51Ki-18" value="Het zou niet gek zijn als een land maar één staatshoofd kon hebben, maar Andorra (lid van de EU) heeft er twee...&lt;div&gt;&lt;br&gt;&lt;/div&gt;&lt;div&gt;De data laat dit niet zien en ik verwacht niet dat je zoiets nazoekt tijdens het tentamen dus in exact 1 relatie aan de staatshoofd kant zou ik ook goedrekenen.&lt;/div&gt;" style="shape=note;size=20;whiteSpace=wrap;html=1;" parent="1" vertex="1">
          <mxGeometry x="440" y="305" width="430" height="120" as="geometry" />
        </mxCell>
        <mxCell id="0EfReKjaT5xNcWBZIRm8-1" value="" style="endArrow=none;dashed=1;html=1;dashPattern=1 3;strokeWidth=2;rounded=0;" edge="1" parent="1">
          <mxGeometry width="50" height="50" relative="1" as="geometry">
            <mxPoint x="630" y="300" as="sourcePoint" />
            <mxPoint x="640" y="220" as="targetPoint" />
            <Array as="points">
              <mxPoint x="610" y="270" />
            </Array>
          </mxGeometry>
        </mxCell>
      </root>
    </mxGraphModel>
  </diagram>
</mxfile>
